<svg width="170" height="170" viewBox="0 0 170 170" fill="none" xmlns="http://www.w3.org/2000/svg">
<circle cx="85" cy="85" r="85" fill="black"/>
<path d="M36 114.817C46.4847 115.407 55.6531 112.956 64.5945 106.466C55.5623 104.922 49.2987 100.792 45.8946 92.2591C48.5271 91.896 50.8419 92.5769 53.5652 91.4875C44.6692 87.5842 38.9049 81.7291 38.6779 71.6075C41.492 71.8345 43.6252 73.6954 46.984 73.4231C38.8141 65.4348 36.3177 56.7202 41.4466 46.1448C49.9795 55.9486 59.965 62.6207 72.1744 65.7525C72.8552 65.934 73.4906 66.1156 74.1714 66.2517C77.3032 66.978 81.025 68.5212 82.9313 68.2942C86.1993 67.8857 82.9313 64.1185 83.7483 59.2166C86.3354 43.9662 103.129 37.0218 115.565 45.9633C119.196 48.5958 122.056 48.5504 125.642 46.9618C127.502 46.1448 129.409 45.3278 131.633 44.3747C131.134 48.7319 127.775 51.1375 125.097 54.3601C128.138 55.0409 130.589 54.1785 133.403 53.2707C132.45 56.4025 130.09 58.1727 127.956 59.8974C125.732 61.6675 124.87 63.5285 124.779 66.4333C123.417 110.414 73.4452 144.41 39.268 117.359C35.9546 114.726 39.1772 117.359 36 114.817Z" fill="white"/>
</svg>
