<svg width="12" height="12" viewBox="0 0 12 12" fill="none" xmlns="http://www.w3.org/2000/svg">
<path d="M4.84965 9.21429C4.73633 9.21451 4.62652 9.17505 4.53927 9.10275C4.49016 9.06204 4.44957 9.01204 4.41982 8.95561C4.39006 8.89919 4.37174 8.83745 4.36588 8.77393C4.36002 8.71041 4.36675 8.64636 4.38569 8.58545C4.40462 8.52454 4.43539 8.46796 4.47623 8.41895L6.64885 5.81956L4.55382 3.21531C4.51354 3.16571 4.48345 3.10863 4.4653 3.04736C4.44715 2.98609 4.44128 2.92183 4.44804 2.85829C4.4548 2.79475 4.47405 2.73317 4.50469 2.67709C4.53533 2.62101 4.57675 2.57154 4.62656 2.53152C4.67674 2.48737 4.7355 2.45406 4.79916 2.4337C4.86282 2.41334 4.93 2.40635 4.99648 2.41318C5.06297 2.42001 5.12732 2.44051 5.18551 2.4734C5.24369 2.50628 5.29446 2.55083 5.33461 2.60426L7.67697 5.51403C7.7483 5.60081 7.7873 5.70965 7.7873 5.82198C7.7873 5.93431 7.7483 6.04316 7.67697 6.12993L5.25216 9.0397C5.20351 9.09839 5.14171 9.14479 5.07178 9.17512C5.00184 9.20545 4.92574 9.21887 4.84965 9.21429Z" fill="white"/>
</svg>
