<svg width="170" height="170" viewBox="0 0 170 170" fill="none" xmlns="http://www.w3.org/2000/svg">
<circle cx="85" cy="85" r="85" fill="black"/>
<path d="M69.7697 100.265C73.8403 104.336 79.2563 106.578 85.0173 106.578C90.7783 106.578 96.1598 104.336 100.265 100.265C104.336 96.1942 106.578 90.7782 106.578 85.0172C106.578 79.2563 104.336 73.8402 100.265 69.7696C96.1943 65.699 90.7783 63.4567 85.0173 63.4567C79.2563 63.4567 73.8403 65.699 69.7697 69.7696C65.699 73.8402 63.4567 79.2563 63.4567 85.0172C63.4567 90.7782 65.699 96.1942 69.7697 100.265Z" stroke="white" stroke-width="5.6"/>
<path d="M110.78 62.7481C113.067 62.7481 114.92 60.8947 114.92 58.6084C114.92 56.3221 113.067 54.4686 110.78 54.4686C108.494 54.4686 106.641 56.3221 106.641 58.6084C106.641 60.8947 108.494 62.7481 110.78 62.7481Z" stroke="white" stroke-width="5.6"/>
<rect x="42.5" y="42.5" width="85" height="85" rx="24.5" stroke="white" stroke-width="5"/>
</svg>
