<svg width="170" height="170" viewBox="0 0 170 170" fill="none" xmlns="http://www.w3.org/2000/svg">
<circle cx="85" cy="85" r="85" fill="black"/>
<path d="M61.1937 71.9513H43.4325V128.591H61.1937V71.9513Z" fill="white"/>
<path d="M109.239 70.7236C108.584 70.6418 107.888 70.6009 107.193 70.5599C97.2479 70.1507 91.6413 76.0438 89.677 78.5811C89.1449 79.2768 88.8994 79.6861 88.8994 79.6861V72.1151H71.9158V128.754H88.8994H89.677C89.677 122.984 89.677 117.255 89.677 111.484C89.677 108.374 89.677 105.264 89.677 102.154C89.677 98.3067 89.3905 94.2142 91.3139 90.6947C92.9509 87.7482 95.8974 86.2749 99.2123 86.2749C109.034 86.2749 109.239 95.1555 109.239 95.974C109.239 96.0149 109.239 96.0558 109.239 96.0558V129H127V92.0452C127 79.3996 120.575 71.9514 109.239 70.7236Z" fill="white"/>
<path d="M52.3129 64.6259C58.0086 64.6259 62.6259 60.0086 62.6259 54.3129C62.6259 48.6173 58.0086 44 52.3129 44C46.6172 44 42 48.6173 42 54.3129C42 60.0086 46.6172 64.6259 52.3129 64.6259Z" fill="white"/>
</svg>
